<svg width="32" height="18" viewBox="0 0 32 18" fill="none" xmlns="http://www.w3.org/2000/svg">
<path d="M28.037 12.3685C27.7613 12.1079 27.4855 11.8474 27.2139 11.5828C26.285 10.6771 26.2262 10.1516 26.9722 9.10642C27.4054 8.50112 27.8551 7.90867 28.3047 7.31634C28.7029 6.79166 29.1011 6.26708 29.4876 5.73373C29.5169 5.69334 29.5461 5.65295 29.5754 5.61256C30.3147 4.59208 31.0583 3.56564 31.4451 2.34548C31.7025 1.53583 31.4747 1.17889 30.6463 1.03583C30.5031 1.01229 30.3537 1.01229 30.2085 1.01229L25.2836 1.00628C24.6769 0.996719 24.3431 1.26125 24.129 1.79839C23.8384 2.52429 23.5398 3.24961 23.194 3.94783C22.4129 5.5361 21.5387 7.07106 20.3136 8.36918C20.2966 8.38718 20.2794 8.40549 20.2621 8.42395C20.0043 8.69893 19.7137 9.00886 19.2907 8.86918C18.7272 8.66337 18.5603 7.73421 18.5699 7.42052L18.5658 1.74381C18.4562 0.934058 18.2753 0.571204 17.4685 0.414062H12.3532C11.672 0.414062 11.3282 0.679183 10.9627 1.1043C10.7545 1.35179 10.6897 1.51041 11.1221 1.59277C11.9702 1.75336 12.4511 2.30252 12.5768 3.15188C12.7794 4.51068 12.7653 5.87501 12.6477 7.23786C12.6145 7.63598 12.5457 8.03204 12.3883 8.40445C12.1411 8.99075 11.7404 9.10868 11.2161 8.7478C10.7431 8.42248 10.4093 7.96366 10.0811 7.50288C8.85392 5.77117 7.87628 3.90478 7.07701 1.94361C6.84723 1.37691 6.44864 1.03406 5.84788 1.02401C4.37101 1.00036 2.89265 0.996817 1.41371 1.02598C0.526535 1.04155 0.261035 1.47327 0.624506 2.27888C2.2326 5.85343 4.02362 9.32799 6.36211 12.4929C7.56204 14.1162 8.94035 15.5519 10.7214 16.5674C12.7382 17.7184 14.9097 18.0658 17.1995 17.9599C18.2696 17.9086 18.5914 17.6301 18.6406 16.5654C18.6738 15.8359 18.7582 15.1086 19.1177 14.4536C19.4711 13.8105 20.0074 13.689 20.6257 14.0891C20.9339 14.2909 21.1933 14.5439 21.4386 14.8145C21.6377 15.0316 21.8348 15.2512 22.032 15.4709C22.4314 15.9161 22.8312 16.3617 23.2492 16.7871C24.0344 17.5853 24.9654 18.0556 26.1336 17.9598L30.6598 17.9617C31.3881 17.9126 31.7671 17.0205 31.3489 16.2064C31.0543 15.6381 30.6677 15.1322 30.2591 14.6417C29.5779 13.8244 28.8074 13.0964 28.037 12.3685Z" fill="black"/>
</svg>
